<svg width="35" height="27" viewBox="0 0 35 27" fill="none" xmlns="http://www.w3.org/2000/svg">
    <path d="M33.8281 12.7899L25.1408 3.85582C24.8707 3.57801 24.3927 3.57801 24.1226 3.85582L22.2392 5.79274C21.9579 6.08203 21.9579 6.55098 22.2392 6.84028L28.5341 13.3133L22.2395 19.7875C21.9582 20.0768 21.9582 20.5457 22.2395 20.835L24.1229 22.7719C24.258 22.9109 24.4413 22.9894 24.6322 22.9894C24.8228 22.9894 25.0065 22.9109 25.1415 22.7719L33.8281 13.8382C34.1094 13.5485 34.1094 13.0792 33.8281 12.7899Z" fill="white" />
    <path d="M11.7996 19.7875L5.5057 13.3141L11.8007 6.84115C11.9357 6.70224 12.0117 6.51407 12.0117 6.31738C12.0117 6.12106 11.9361 5.93252 11.8007 5.79361L9.91724 3.85671C9.78217 3.71781 9.59884 3.63965 9.40794 3.63965C9.21704 3.63965 9.03371 3.71781 8.89864 3.85671L0.210978 12.79C-0.0703261 13.0793 -0.0703261 13.5482 0.210978 13.8379L8.89828 22.7716C9.03335 22.9105 9.21668 22.989 9.40758 22.989C9.59848 22.989 9.78181 22.9105 9.91688 22.7716L11.8003 20.8347C12.0816 20.5458 12.0816 20.0768 11.7996 19.7875Z" fill="white" />
    <path d="M21.9598 0.850397C21.8683 0.677783 21.7141 0.549618 21.5312 0.494055L20.0043 0.0306628C19.6232 -0.0856484 19.222 0.139195 19.1096 0.531468L12.0214 25.2172C11.9674 25.4058 11.9883 25.6084 12.0794 25.7806C12.1706 25.9536 12.3251 26.0814 12.5081 26.1373L14.0349 26.6007C14.103 26.6215 14.1718 26.6315 14.2391 26.6315C14.55 26.6315 14.837 26.4226 14.9296 26.0999L22.0178 1.4138C22.0718 1.22526 22.0513 1.02264 21.9598 0.850397Z" fill="white" />
</svg>
    