<svg width="38" height="39" viewBox="0 0 38 39" fill="none" xmlns="http://www.w3.org/2000/svg">
    <path d="M18.8906 0.609375C8.45058 0.609375 0 9.05828 0 19.5C0 29.94 8.44891 38.3906 18.8906 38.3906C22.5586 38.3906 26.153 37.3136 29.2049 35.3268C30.1193 34.7315 30.3189 33.4767 29.6278 32.6324L28.8526 31.6854C28.2683 30.9716 27.2394 30.7967 26.4629 31.2947C24.2166 32.7354 21.5806 33.5156 18.8906 33.5156C11.1624 33.5156 4.875 27.2282 4.875 19.5C4.875 11.7718 11.1624 5.48438 18.8906 5.48438C26.5184 5.48438 32.9062 9.87332 32.9062 17.6719C32.9062 20.6263 31.2996 23.746 28.4753 24.0469C27.1538 24.0123 27.1873 23.0676 27.4488 21.7599L29.2338 12.5348C29.4521 11.4067 28.5879 10.3594 27.439 10.3594H24.0127C23.7597 10.3594 23.5156 10.4525 23.3269 10.621C23.1382 10.7895 23.0181 11.0215 22.9896 11.2729L22.9888 11.2799C21.8693 9.91636 19.9078 9.62127 18.4207 9.62127C12.7398 9.62127 7.92188 14.3617 7.92188 21.1583C7.92188 26.1325 10.7239 29.2226 15.2344 29.2226C17.2898 29.2226 19.6043 28.0315 20.9466 26.3027C21.6719 28.9004 24.0401 28.9004 26.3327 28.9004C34.6284 28.9004 37.7812 23.4456 37.7812 17.6719C37.7812 7.28607 29.4041 0.609375 18.8906 0.609375ZM17.2392 23.7984C15.5445 23.7984 14.4917 22.6083 14.4917 20.6928C14.4917 17.2656 16.8362 15.1529 18.9577 15.1529C20.6557 15.1529 21.6695 16.3138 21.6695 18.2584C21.6695 21.6908 19.0891 23.7984 17.2392 23.7984Z" fill="#346B31" />
</svg>
    