<svg width="197" height="196" viewBox="0 0 197 196" fill="none" xmlns="http://www.w3.org/2000/svg">
<g clip-path="url(#clip0_301_4)">
<rect y="-1" width="197" height="197" fill="#346B31"/>
<path d="M42.805 232.465L18.5462 58.5308L108.123 46.0374C124.734 43.7207 137.627 43.3738 146.804 44.9968C155.981 46.6198 163.799 50.9319 170.259 57.9332C176.708 64.8554 180.704 73.8533 182.249 84.9269C183.595 94.5767 182.702 103.208 179.571 110.821C176.428 118.356 171.562 124.8 164.971 130.154C160.769 133.562 154.801 136.733 147.066 139.667C153.771 140.909 158.735 142.393 161.96 144.121C164.136 145.269 167.408 147.917 171.776 152.065C176.224 156.202 179.257 159.448 180.875 161.803L213.891 208.603L153.145 217.075L117.02 167.927C112.421 161.553 108.555 157.536 105.421 155.877C101.17 153.728 96.5925 152.996 91.6885 153.68L86.9427 154.342L96.7886 224.935L42.805 232.465ZM82.359 121.477L105.02 118.316C107.472 117.974 112.108 116.521 118.927 113.958C122.387 112.749 125.02 110.527 126.827 107.292C128.712 104.046 129.39 100.524 128.861 96.7273C128.078 91.1114 125.697 87.0489 121.718 84.5396C117.74 82.0304 110.846 81.4597 101.038 82.8277L77.4278 86.1206L82.359 121.477Z" fill="white"/>
</g>
<defs>
<clipPath id="clip0_301_4">
<rect width="197" height="196" rx="25" fill="white"/>
</clipPath>
</defs>
</svg>
